HIERARCHY
ROOT Hips
{
	OFFSET 36.215240 100.393600 -1.933919
	CHANNELS 6 Xposition Yposition Zposition Xrotation Yrotation Zrotation
	JOINT Chest
	{
		OFFSET -3.088383 13.131958 2.041530
		CHANNELS 3 Xrotation Yrotation Zrotation
		JOINT Chest2
		{
			OFFSET -8.763212 19.471390 1.771290
			CHANNELS 3 Xrotation Yrotation Zrotation
			JOINT Chest3
			{
				OFFSET -6.250860 13.521744 -0.953490
				CHANNELS 3 Xrotation Yrotation Zrotation
				JOINT Neck
				{
					OFFSET -4.814231 16.596069 0.099465
					CHANNELS 3 Xrotation Yrotation Zrotation
					JOINT Head
					{
						OFFSET -2.133961 9.922546 2.610951
						CHANNELS 3 Xrotation Yrotation Zrotation
						End Site
						{
							OFFSET -2.145190 9.938400 2.540493
						}
					}
				}
				JOINT LeftCollar
				{
					OFFSET 0.851593 14.040054 1.988928
					CHANNELS 3 Xrotation Yrotation Zrotation
					JOINT LeftUpArm
					{
						OFFSET 10.225866 9.680466 -10.498545
						CHANNELS 3 Xrotation Yrotation Zrotation
						JOINT LeftLowArm
						{
							OFFSET 6.051729 32.052109 8.704370
							CHANNELS 3 Xrotation Yrotation Zrotation
							JOINT LeftHand
							{
								OFFSET -2.987934 28.069458 10.204139
								CHANNELS 3 Xrotation Yrotation Zrotation
								End Site
								{
									OFFSET -0.653028 6.134750 2.230184
								}
							}
						}
					}
				}
				JOINT RightCollar
				{
					OFFSET -7.040296 11.740082 3.796488
					CHANNELS 3 Xrotation Yrotation Zrotation
					JOINT RightUpArm
					{
						OFFSET -16.141022 5.534744 -4.162968
						CHANNELS 3 Xrotation Yrotation Zrotation
						JOINT RightLowArm
						{
							OFFSET -9.431135 30.433228 11.162728
							CHANNELS 3 Xrotation Yrotation Zrotation
							JOINT RightHand
							{
								OFFSET -1.379116 29.011200 7.576468
								CHANNELS 3 Xrotation Yrotation Zrotation
								End Site
								{
									OFFSET -0.301420 6.340683 1.655918
								}
							}
						}
					}
				}
			}
		}
	}
	JOINT LeftUpLeg
	{
		OFFSET 9.335201 2.593086 -2.559108
		CHANNELS 3 Xrotation Yrotation Zrotation
		JOINT LeftLowLeg
		{
			OFFSET 5.456100 -46.850559 -4.387022
			CHANNELS 3 Xrotation Yrotation Zrotation
			JOINT LeftFoot
			{
				OFFSET -5.983719 -38.784615 -21.459671
				CHANNELS 3 Xrotation Yrotation Zrotation
				JOINT LeftToe
				{
					OFFSET 1.297802 -18.630901 14.517749
					CHANNELS 3 Xrotation Yrotation Zrotation
					End Site
					{
						OFFSET 5.378639 -5.383102 22.397575
					}
				}
			}
		}
	}
	JOINT RightUpLeg
	{
		OFFSET -9.335159 -2.593285 2.559079
		CHANNELS 3 Xrotation Yrotation Zrotation
		JOINT RightLowLeg
		{
			OFFSET -3.982332 -46.356529 8.900909
			CHANNELS 3 Xrotation Yrotation Zrotation
			JOINT RightFoot
			{
				OFFSET -28.770958 -21.613461 -26.564466
				CHANNELS 3 Xrotation Yrotation Zrotation
				JOINT RightToe
				{
					OFFSET -7.456131 -22.423199 1.078545
					CHANNELS 3 Xrotation Yrotation Zrotation
					End Site
					{
						OFFSET -0.352283 -18.456429 14.791627
					}
				}
			}
		}
	}
}
MOTION
Frames: 17
Frame Time: 0.033333
-3.927296 105.002426 -1.111684 0.578224 -16.771833 -16.832653 1.183406 0.431083 -6.821438 1.690047 1.381780 1.383801 -0.673416 5.479089 3.780015 -14.662678 -4.136080 6.661401 0.000001 0.000000 -0.000001 1.286437 -0.794052 -52.408158 12.230972 7.933854 -90.105870 19.594829 21.283341 -8.812221 0.000001 -0.000006 -0.000001 18.321636 16.879658 61.089239 44.850335 21.787047 72.982108 26.767884 -14.326387 -3.865356 -0.000001 -0.000001 -0.000000 -0.955236 -2.404651 13.743511 -10.195662 1.065762 7.716087 4.394803 4.474688 4.562582 -0.000002 -0.000001 0.000000 12.479562 4.531480 17.620430 -32.838078 -16.670832 34.447335 -17.249711 3.915549 -4.455421 0.000000 0.000001 0.000001 
-3.932003 105.004791 -1.116664 0.194246 -16.655568 -16.759449 1.557910 0.531891 -6.964080 2.402205 1.714531 1.087255 -1.347772 4.878107 4.054898 -14.943834 -4.040135 6.581259 -0.000000 0.000000 0.000001 1.004241 -0.389303 -52.602753 12.119687 8.224650 -90.065046 19.782217 21.128743 -8.822250 -0.000000 0.000002 0.000001 18.242180 17.349205 61.028874 44.783088 21.764208 72.919564 26.626295 -14.141868 -4.063485 -0.000001 0.000003 -0.000002 -0.518649 -2.262569 13.527380 -10.295259 1.031046 7.809981 4.555208 4.335323 4.375567 -0.000001 -0.000001 -0.000000 12.955335 4.599051 17.360710 -33.097939 -16.783668 34.612533 -17.186957 3.795826 -4.589745 -0.000001 -0.000001 0.000002 
-3.938427 105.008133 -1.117443 0.162125 -16.818709 -16.773655 1.803122 0.595020 -7.015715 1.886577 1.494891 1.259318 -1.153124 5.162838 4.013650 -14.517477 -3.797508 6.471547 0.000001 0.000000 -0.000000 0.849033 -0.154446 -52.507035 12.003245 8.343009 -90.212578 19.526911 21.094368 -9.291202 0.000002 -0.000001 -0.000002 18.164057 17.230322 60.981896 44.604383 21.590257 73.235815 26.891717 -13.946781 -3.984268 -0.000002 -0.000000 -0.000002 -0.558464 -2.311233 13.587539 -10.276836 1.061506 7.697363 4.890154 4.633364 4.413703 -0.000001 -0.000001 0.000000 12.991851 4.599363 17.354630 -33.026943 -16.731814 34.571002 -17.000947 3.893617 -4.262820 -0.000000 -0.000001 -0.000001 
-3.946980 105.008987 -1.121119 0.180420 -16.866870 -16.750687 1.556380 0.508449 -6.975443 2.356576 1.733217 1.075843 -1.416694 5.185782 4.132015 -14.670942 -3.883343 6.586544 -0.000000 -0.000001 -0.000002 1.101456 -0.242587 -52.466313 12.268335 7.940812 -90.203645 19.278352 21.193367 -9.081099 -0.000000 -0.000003 0.000000 18.316358 17.179393 60.959247 44.852421 21.569802 73.081631 26.716533 -13.950429 -3.878479 -0.000001 0.000001 -0.000001 -0.073202 -2.210641 13.436110 -11.220511 0.940724 7.970624 5.195419 4.798850 4.374743 -0.000001 0.000001 -0.000001 13.143471 4.684049 17.260137 -33.369374 -16.769349 34.696562 -16.717831 3.770783 -4.363613 0.000003 0.000002 -0.000001 
-3.958073 105.016220 -1.128088 0.025713 -16.925800 -16.788795 2.143931 0.661200 -7.093214 1.677231 1.431298 1.340437 -0.914004 4.913992 4.000106 -14.659401 -3.619912 6.435395 -0.000000 -0.000000 -0.000001 0.872451 0.386493 -52.473516 12.316703 7.874908 -90.112195 19.482012 21.126682 -9.431425 0.000000 -0.000002 -0.000002 18.326793 17.801486 60.642149 45.002303 21.652806 73.051735 26.420637 -13.868673 -4.231469 -0.000003 0.000002 0.000002 0.044827 -2.152941 13.447713 -11.056147 0.862038 7.944095 5.332353 4.651198 4.200308 -0.000001 0.000001 -0.000000 13.173341 4.699529 17.282160 -33.116039 -16.644631 34.668763 -16.595273 3.744574 -4.440405 -0.000004 -0.000000 0.000003 
-3.970776 105.016266 -1.135402 0.412288 -16.935797 -16.716092 1.967773 0.608740 -7.085610 1.932276 1.577048 1.185556 -1.242190 4.946662 4.115334 -14.804109 -3.878937 6.551389 0.000001 -0.000001 -0.000000 1.067498 0.003660 -52.338882 12.293200 7.791395 -90.188447 19.521306 21.067088 -9.397866 0.000002 -0.000000 0.000001 18.297337 17.537998 60.722533 44.918678 21.639457 73.180778 26.547444 -13.706200 -4.208817 0.000000 0.000001 -0.000000 -0.365471 -2.352463 13.492785 -10.992880 0.832014 7.919981 5.155929 4.710276 4.323408 -0.000000 -0.000001 -0.000000 12.977467 4.702819 17.297529 -33.405250 -16.697449 34.710123 -16.612132 3.756937 -4.489236 0.000001 -0.000002 0.000000 
-3.984737 105.019363 -1.140564 0.591510 -16.927056 -16.629544 1.563588 0.512678 -7.012519 2.532404 1.806310 0.996459 -1.647044 4.738790 4.217799 -14.830332 -3.966356 6.574837 -0.000001 -0.000000 -0.000001 1.160171 -0.189421 -52.217554 12.228974 7.581812 -90.181262 19.229160 20.988210 -9.617290 0.000000 0.000003 0.000001 18.259717 17.312673 60.677775 44.795891 21.708964 73.399836 26.704199 -13.575434 -3.974461 -0.000001 0.000001 -0.000001 -0.216817 -2.260224 13.384219 -11.472580 0.826548 8.104260 4.825448 4.449487 4.326290 -0.000001 -0.000000 -0.000000 12.927074 4.656889 17.241609 -33.630000 -16.772414 34.721400 -16.674621 3.891306 -4.365457 -0.000002 0.000001 0.000001 
-4.001701 105.024490 -1.147347 0.808925 -16.743198 -16.610113 1.571968 0.515535 -7.020385 2.042303 1.547342 1.255695 -1.165266 4.880442 4.037662 -14.736529 -3.992298 6.524178 -0.000000 -0.000001 -0.000000 1.249861 -0.525724 -52.195199 11.991288 7.810683 -90.341218 19.511909 20.601901 -9.440672 0.000001 -0.000002 -0.000000 18.185898 16.920897 61.011368 44.592574 21.543455 73.515040 26.945650 -13.214366 -3.782368 -0.000001 -0.000000 -0.000002 -0.224018 -2.282930 13.495468 -11.757897 0.893058 8.075912 5.063216 4.438848 4.230159 -0.000000 -0.000002 0.000001 12.727474 4.616008 17.301581 -33.603612 -16.855604 34.737287 -16.559256 3.932708 -4.357611 -0.000003 0.000000 -0.000000 
-4.014984 105.030647 -1.154476 0.728868 -16.904424 -16.654732 1.502149 0.474918 -7.002540 2.370665 1.692487 1.206243 -1.928116 4.688186 4.220901 -13.142250 -3.469801 6.404456 -0.000000 0.000001 0.000001 1.483028 -0.318276 -52.410254 12.311601 7.867920 -90.211684 19.367973 20.940672 -9.258859 0.000000 -0.000005 -0.000001 18.592207 15.731473 61.572366 45.122545 21.652917 72.833258 27.140841 -13.635080 -3.050541 -0.000001 -0.000001 -0.000000 -0.318416 -2.296054 13.604623 -11.545677 1.019519 7.951280 4.341277 4.373759 4.612133 -0.000001 -0.000002 -0.000001 12.519751 4.560233 17.437563 -33.747480 -16.981327 34.646941 -16.145493 3.520977 -5.216663 -0.000001 -0.000000 -0.000001 
-4.030380 105.031090 -1.158195 0.799320 -16.844076 -16.672811 1.557448 0.481425 -6.912195 2.483486 1.741970 1.153760 -1.626226 4.528388 4.127325 -14.184273 -3.663161 6.517727 0.000001 0.000000 -0.000000 1.071320 0.422360 -52.391984 12.398439 7.869274 -90.240350 19.813899 21.019518 -9.215184 -0.000001 -0.000003 -0.000000 18.530107 16.690513 60.965449 45.199057 21.806444 72.818518 26.937402 -13.782245 -4.020674 -0.000004 -0.000000 -0.000001 -0.301739 -2.311912 13.634383 -11.604912 0.987250 8.013280 4.725687 4.421251 4.406063 -0.000002 0.000000 -0.000000 12.816527 4.642267 17.365473 -34.015729 -16.920791 34.757542 -16.416769 3.587378 -4.879500 -0.000005 -0.000001 0.000002 
-4.042812 105.028084 -1.156877 0.595974 -17.322820 -16.634827 1.669029 0.518142 -6.971701 2.789080 1.952876 0.886165 -1.911672 4.651486 4.308000 -14.249464 -3.650331 6.456194 0.000001 0.000001 -0.000001 1.035354 0.392546 -52.271028 12.369409 7.807693 -90.357146 19.800718 21.042776 -9.096143 -0.000000 0.000003 0.000002 18.437157 16.974407 60.737300 45.024600 21.700621 73.405150 26.935648 -13.699134 -4.300493 -0.000000 0.000001 -0.000000 -0.065999 -2.229825 13.428334 -11.569216 0.955292 8.038210 4.865559 4.608229 4.425245 -0.000000 -0.000000 -0.000000 12.955404 4.667771 17.247589 -33.818196 -16.811539 34.632604 -16.383643 3.784163 -4.472259 -0.000001 -0.000004 0.000002 
-4.055088 105.024605 -1.153914 0.619347 -17.103183 -16.674312 1.840492 0.576870 -6.920144 2.442898 1.676690 1.214903 -1.622734 4.792976 4.020942 -14.398107 -3.885085 6.616502 -0.000000 -0.000001 -0.000002 1.123519 -0.097131 -52.216349 12.299685 7.534647 -90.226000 19.746774 20.892999 -9.119536 0.000000 -0.000003 -0.000001 18.358946 16.624213 60.896969 44.827966 21.625854 73.654629 27.050892 -13.644999 -4.018782 0.000000 0.000002 -0.000002 0.143564 -2.129341 13.459048 -11.827489 0.983646 8.149381 5.146249 4.440116 4.169244 -0.000001 0.000001 -0.000001 13.149319 4.670148 17.230134 -34.122379 -16.892118 34.762244 -16.359662 3.686556 -4.523407 -0.000000 -0.000002 0.000002 
-4.068985 105.020821 -1.150570 1.183296 -17.000657 -16.620103 1.190390 0.408135 -6.716080 1.842396 1.446483 1.400744 -0.836418 5.096723 3.828011 -14.757988 -3.906592 6.702555 0.000001 -0.000001 -0.000001 1.124212 -0.086722 -52.179701 12.305463 7.612419 -90.171959 20.031903 20.795501 -9.355215 0.000001 -0.000006 -0.000000 18.392460 16.422065 60.967163 44.880671 21.654807 73.404576 27.084658 -13.626884 -3.796007 -0.000001 -0.000001 0.000001 -0.284164 -2.283229 13.638925 -11.700251 1.045137 8.052259 5.571263 4.585242 4.095235 -0.000003 -0.000003 -0.000000 12.724292 4.583801 17.305124 -33.973467 -16.908364 34.888395 -16.485538 3.671497 -4.492677 -0.000004 -0.000000 0.000000 
-4.086903 105.018082 -1.145603 1.547584 -16.948575 -16.636034 0.495002 0.203892 -6.427689 2.876891 1.913327 0.992869 -1.567057 4.570551 4.103238 -14.792825 -3.718470 6.652708 0.000001 0.000001 0.000000 1.056313 0.261899 -52.169016 12.298406 7.725659 -90.270485 19.891136 20.754435 -9.376640 -0.000001 -0.000005 0.000001 18.428236 16.712800 60.626514 44.862284 21.553673 73.776965 27.077583 -13.523232 -4.074439 -0.000001 0.000003 -0.000001 -0.383224 -2.338262 13.787217 -11.793483 0.957703 7.951406 5.411623 4.565589 4.133630 -0.000003 -0.000000 -0.000000 12.603026 4.593752 17.389259 -34.362904 -16.929423 35.062691 -16.378314 3.441600 -4.780966 -0.000003 -0.000002 0.000001 
-4.105999 105.019058 -1.144836 1.569832 -17.062016 -16.633628 0.739643 0.245139 -6.440788 2.538422 1.836414 1.044737 -1.535613 4.617791 4.102519 -14.688749 -3.608506 6.655826 -0.000000 0.000000 -0.000000 1.255299 0.455873 -52.163760 12.615021 7.545087 -90.203850 19.802214 21.038239 -9.255566 0.000000 -0.000005 0.000000 18.646898 16.918619 60.510674 45.377724 21.701833 73.046366 26.799651 -13.849504 -4.094149 -0.000000 0.000003 0.000000 -0.396932 -2.342067 13.772833 -11.729757 0.915861 7.960788 5.393321 4.495542 4.150570 -0.000001 -0.000001 -0.000001 12.582448 4.611285 17.365566 -34.306456 -16.945889 35.018609 -16.338378 3.551874 -4.769685 -0.000003 0.000000 0.000002 
-4.126469 105.014656 -1.142004 1.163794 -16.975137 -16.585233 1.124535 0.351947 -6.593292 2.071457 1.635709 1.215782 -1.061277 4.908515 3.917974 -14.773479 -3.830513 6.799830 0.000001 0.000000 -0.000000 1.401972 0.196649 -52.095133 12.649498 7.694153 -90.358594 19.869113 21.100042 -8.834037 0.000002 -0.000009 -0.000001 18.717532 16.489945 60.604289 45.465113 21.612570 72.984232 27.000356 -14.030972 -3.911341 -0.000000 -0.000002 -0.000000 -0.291425 -2.309014 13.742254 -11.114664 0.960183 7.744489 5.495315 4.420277 4.060390 -0.000003 -0.000001 -0.000000 12.883446 4.666522 17.262098 -34.083231 -16.954596 35.038563 -16.660158 3.520288 -4.896743 0.000005 0.000001 0.000002 
-4.151859 105.015083 -1.132963 0.877745 -17.017761 -16.614886 1.549024 0.488445 -6.705438 1.641230 1.395138 1.398059 -1.087050 4.957891 3.928622 -13.657767 -3.481454 6.424519 -0.000000 0.000000 -0.000002 1.139600 0.282224 -51.999320 12.144301 8.450651 -90.487432 20.505659 21.045915 -9.436373 0.000002 -0.000004 -0.000000 18.574435 15.147345 61.281215 45.043527 21.453498 72.804475 27.743200 -14.001531 -2.543685 -0.000001 -0.000000 -0.000001 -0.439736 -2.258690 13.822089 -10.750495 1.005054 7.715315 4.618599 4.390942 4.464540 -0.000001 0.000000 -0.000000 13.291759 4.632071 17.203334 -34.424198 -17.156407 34.979379 -16.364517 3.544606 -5.123351 -0.000003 0.000002 -0.000001 
